<svg width="304" height="314" viewBox="0 0 304 314" fill="none" xmlns="http://www.w3.org/2000/svg">
<circle cx="159" cy="145" r="145" fill="#DBE0F2"/>
<path d="M207.366 290.565H203.484L189.898 248.477H199.602L207.366 290.565Z" fill="#252362"/>
<path d="M199.909 248.117H189.383L203.201 290.933H207.791L199.909 248.117ZM199.285 248.844L206.914 290.211H203.741L190.373 248.844H199.285Z" fill="#252362"/>
<path d="M139.442 276.697H134.59L132.164 241.305L139.442 248.48V276.697Z" fill="#252362"/>
<path d="M139.811 248.328L131.73 240.367L134.246 277.057H139.811V248.328ZM139.078 276.335H134.924L132.587 242.237L139.068 248.626L139.078 276.335Z" fill="#252362"/>
<path d="M113 138.694C146.964 136.781 164.911 131.524 167.337 139.67C169.763 147.817 173.16 168.829 173.16 168.829C173.16 168.829 241.573 151.131 236.236 189.876C230.898 228.621 222.65 246.32 204.698 251.577C186.745 256.833 134.834 264.008 134.834 264.008L96.988 208.531L63.9943 168.341C60.5187 155.826 57.0414 143.312 53.5625 130.797C59.9256 133.105 66.4543 134.942 73.0943 136.293C85.1946 138.767 95.8096 139.666 113 138.694Z" fill="#E6E6E6"/>
<path d="M53.1707 130.391C53.0908 130.462 53.0327 130.553 53.0029 130.655C52.9732 130.757 52.973 130.865 53.0024 130.967L63.4342 168.511C63.4543 168.589 63.4915 168.66 63.5431 168.721L96.517 208.862L134.348 264.325C134.402 264.405 134.476 264.47 134.562 264.515C134.649 264.559 134.745 264.581 134.843 264.579H134.922C135.417 264.506 187.086 257.335 204.875 252.123C222.664 246.91 231.294 230.065 236.819 189.949C237.928 181.919 235.973 175.652 231.022 171.328C224.372 165.529 212.574 163.255 195.953 164.573C188.438 165.202 180.98 166.386 173.644 168.116C173.06 164.573 170.079 146.776 167.906 139.484C166.059 133.285 156.36 134.247 138.754 135.99C131.709 136.688 122.941 137.556 112.974 138.118C96.9576 139.021 86.1842 138.376 73.2175 135.736C66.6045 134.397 60.1022 132.573 53.7649 130.279C53.665 130.242 53.5566 130.233 53.4518 130.252C53.3469 130.272 53.2497 130.32 53.1707 130.391V130.391ZM54.4234 131.733C60.4775 133.874 66.6765 135.593 72.9749 136.878C86.0456 139.538 96.9032 140.187 113.034 139.279C123.025 138.718 131.808 137.844 138.863 137.146C155.845 135.467 165.203 134.54 166.782 139.826C169.168 147.826 172.55 168.721 172.585 168.931C172.598 169.01 172.627 169.086 172.672 169.153C172.716 169.22 172.774 169.278 172.842 169.322C172.91 169.365 172.987 169.393 173.067 169.406C173.147 169.418 173.229 169.415 173.307 169.395C173.56 169.331 189.027 165.407 204.499 165.407C214.401 165.407 224.258 166.998 230.244 172.206C234.888 176.258 236.71 182.183 235.661 189.807C230.215 229.392 221.773 245.987 204.539 251.039C187.616 255.998 139.764 262.753 135.115 263.407L97.4874 208.218L97.4527 208.179L64.5383 168.092L54.4234 131.733Z" fill="#252362"/>
<path d="M159.777 108.354C165.283 118.116 171.526 133.335 171.526 133.335L214.862 158.316L204.96 171.714C204.96 171.714 167.501 154.333 164.565 151.8C161.629 149.266 143.276 124.647 146.202 97.1328C146.187 97.1279 154.267 98.5776 159.777 108.354Z" fill="#2857E5"/>
<path d="M145.517 97.0886C143.948 111.771 148.488 125.34 152.553 134.14C156.979 143.697 162.346 150.809 164.103 152.331C167.074 154.894 203.127 171.631 204.662 172.343L205.157 172.578L215.847 158.101L172.055 132.881C171.277 131.006 165.47 117.11 160.351 108.037C154.756 98.0989 146.641 96.5419 146.295 96.4833L145.582 96.3516L145.517 97.0886ZM146.78 97.9964C148.829 98.6163 154.85 101.013 159.187 108.705C164.608 118.331 170.842 133.462 170.901 133.598L170.99 133.808L171.188 133.925L213.881 158.535L204.732 170.884C191.666 164.817 167.232 153.234 164.99 151.306C163.712 150.203 158.469 143.692 153.776 133.564C149.844 125.071 145.478 112.063 146.805 97.972L146.78 97.9964Z" fill="#2857E5"/>
<path d="M99.5169 100.919C106.32 93.8608 117.341 93.3824 126 93.0261C133.531 92.7138 141.794 92.377 148.775 97.131C156.177 102.193 158.593 110.612 160.895 122.839C164.346 141.355 166.068 160.144 166.039 178.97C153.821 185.148 140.083 187.8 126.404 186.62C112.726 185.441 99.6629 180.478 88.7188 172.303C91.2309 160.293 92.8853 148.124 93.6698 135.886C94.957 115.635 93.0162 107.659 99.5169 100.919Z" fill="#2857E5"/>
<path d="M88.0422 172.147L87.9531 172.557L88.2947 172.811C95.0479 177.828 109.287 186.395 128.774 187.454C130.121 187.525 131.441 187.561 132.735 187.561C144.413 187.542 155.921 184.804 166.323 179.571L166.694 179.386V178.976C166.713 160.114 164.988 141.29 161.54 122.737C159.377 111.257 157.084 102.037 149.163 96.6091C142.013 91.7282 133.503 92.0747 125.992 92.3822C117.115 92.7483 106.069 93.2022 99.0533 100.48C94.028 105.693 93.8647 111.706 93.5676 122.63C93.4636 126.417 93.3448 130.717 93.018 135.852C92.2165 148.05 90.5539 160.177 88.0422 172.147ZM89.4483 172.001C91.9138 160.096 93.5433 148.037 94.3251 135.911C94.6568 130.752 94.7707 126.442 94.8747 122.639C95.1767 111.701 95.3252 106.215 99.994 101.373C106.633 94.481 117.377 94.0515 126.012 93.6854C133.314 93.3828 141.583 93.0412 148.361 97.6732C155.228 102.369 157.733 109.876 160.199 122.957C163.614 141.295 165.335 159.901 165.343 178.546C154.053 184.155 141.474 186.762 128.849 186.107C110.035 185.106 96.2065 176.955 89.4483 172.001Z" fill="#252362"/>
<path d="M121.979 313.055H116.156V248.484L126.831 259.008L121.979 313.055Z" fill="#252362"/>
<path d="M127.207 258.862L115.785 247.602V313.407H122.311L127.207 258.862ZM116.518 249.368L126.445 259.13L121.637 312.684H116.518V249.368Z" fill="#252362"/>
<path d="M88.497 248.478L82.1943 283.392H75.8867L82.1943 237.477L88.497 248.478Z" fill="#252362"/>
<path d="M81.9715 236.359L75.4609 283.749H82.4963L88.8782 248.391L81.9715 236.359ZM76.3026 283.046L82.4072 238.605L88.1158 248.557L81.8824 283.046H76.3026Z" fill="#252362"/>
<path d="M117.775 45.1464C118.077 44.7852 122.82 38.9427 129.464 39.7237C130.916 39.9028 132.318 40.364 133.588 41.0806C134.217 40.5925 137.807 37.8884 142.525 38.7084C143.203 38.8256 148.466 39.8213 149.744 43.7895C150.833 47.2355 148.065 50.6229 146.991 51.9212C140.906 59.3647 129.063 58.5593 126.692 58.3592L119.131 69.2047C117.557 66.979 114.151 61.4733 114.675 54.2934C114.844 52.0628 115.121 48.3679 117.775 45.1464Z" fill="#252362"/>
<path d="M114.503 54.2805C114.037 60.7918 116.696 66.0388 119.003 69.2993L119.147 69.5043L126.796 58.527C130.232 58.8101 141.337 59.0981 147.125 52.0158C148.194 50.7125 151.022 47.2519 149.908 43.7181C148.655 39.7841 143.56 38.7102 142.55 38.515C138.144 37.7487 134.663 40.0183 133.569 40.8481C132.305 40.1523 130.916 39.7047 129.48 39.5302C123.137 38.7835 118.508 43.9524 117.647 44.9969C114.933 48.2769 114.666 52.0402 114.503 54.2805ZM114.854 54.2805C115.013 52.0841 115.275 48.4234 117.909 45.2263C118.761 44.1916 123.276 39.1398 129.44 39.8573C130.868 40.0319 132.246 40.4849 133.495 41.1898L133.599 41.2483L133.693 41.1751C134.644 40.4332 138.089 38.0757 142.491 38.842C143.481 39.008 148.383 40.0427 149.571 43.806C150.63 47.1543 147.888 50.5075 146.858 51.7717C141.115 58.7954 129.995 58.4294 126.722 58.1511H126.623L119.147 68.8893C116.904 65.6678 114.404 60.577 114.854 54.3049V54.2805Z" fill="#252362"/>
<path d="M119.397 59.236C119.516 58.4794 120.224 54.4136 123.962 51.9145C124.645 51.4606 127.462 49.6985 130.834 50.2208C131.948 50.3916 132.492 50.7089 134.963 51.9145C136.537 52.6808 138.755 53.74 141.493 54.9651C141.939 56.7613 142.548 59.3189 143.211 62.4184C144.261 67.3628 144.375 68.7002 144.419 69.5983C144.573 72.5269 144.712 75.2211 143.211 78.0082C142.776 78.8135 141.483 81.2052 138.83 82.323C138.607 82.4157 138.424 82.484 138.3 82.5231V98.1666C135.474 100.583 131.825 101.855 128.086 101.725C124.804 101.557 121.675 100.303 119.204 98.1666V67.9046C117.283 66.2353 114.347 63.1261 115.124 60.2463C115.852 57.552 117.976 58.3379 119.397 59.236Z" fill="white"/>
<path d="M114.555 60.1128C113.724 63.2074 116.65 66.4288 118.615 68.1811V98.1746C118.616 98.2578 118.634 98.34 118.669 98.4157C118.704 98.4914 118.755 98.5589 118.818 98.6139C121.387 100.842 124.645 102.146 128.062 102.314C128.29 102.314 128.517 102.314 128.745 102.314C132.401 102.279 135.926 100.963 138.687 98.5993C138.75 98.5444 138.8 98.4768 138.834 98.401C138.869 98.3252 138.886 98.243 138.885 98.16V82.9362L139.058 82.8679C141.905 81.6672 143.276 79.1242 143.732 78.2847C145.306 75.3561 145.163 72.5495 145.009 69.577C144.96 68.6008 144.821 67.1609 143.786 62.3093C143.252 59.7956 142.672 57.2819 142.063 54.8365C142.043 54.7512 142.002 54.6716 141.946 54.604C141.889 54.5363 141.818 54.4823 141.737 54.446C139.533 53.4698 137.34 52.4351 135.221 51.4052L134.364 50.9854C132.587 50.1117 131.988 49.8189 130.928 49.6578C127.542 49.1355 124.7 50.7316 123.631 51.4442C121.264 53.0879 119.606 55.5443 118.982 58.3313C117.907 57.7992 116.976 57.6772 116.209 57.975C115.442 58.2727 114.857 59.0195 114.555 60.1128ZM115.694 60.4106C115.892 59.6735 116.189 59.2196 116.635 59.0536C117.189 58.8438 118.061 59.0781 119.081 59.7272C119.164 59.7778 119.258 59.8078 119.356 59.8146C119.453 59.8214 119.551 59.8048 119.64 59.7663C119.729 59.7262 119.806 59.6651 119.865 59.5885C119.923 59.5118 119.962 59.4219 119.977 59.327C120.145 58.2678 120.942 54.6413 124.294 52.4009C125.245 51.7664 127.76 50.3411 130.73 50.7999C131.612 50.9366 132.082 51.166 133.825 52.0251L134.686 52.4448C136.736 53.421 138.85 54.4265 140.974 55.3734C141.553 57.7211 142.108 60.1323 142.623 62.5387C143.638 67.3074 143.771 68.6985 143.821 69.6258C143.969 72.5544 144.103 75.0876 142.677 77.7331C142.271 78.4799 141.048 80.7544 138.583 81.7892C138.424 81.8575 138.261 81.921 138.088 81.9747C137.971 82.012 137.869 82.0851 137.796 82.1834C137.724 82.2817 137.686 82.4001 137.687 82.5214V97.9013C135.19 100.005 132.013 101.162 128.728 101.162C125.443 101.162 122.266 100.005 119.769 97.9013V67.9224C119.768 67.8404 119.75 67.7594 119.716 67.6846C119.682 67.6098 119.633 67.5429 119.571 67.488C117.838 65.9602 114.996 63.0072 115.694 60.4106Z" fill="#252362"/>
<path d="M138.26 59.5077C138.412 59.4724 138.571 59.4979 138.704 59.5784C138.837 59.6588 138.932 59.7879 138.968 59.9372C139.146 60.6742 140.706 67.2245 140.354 69.3135C140.186 70.2897 139.834 70.8852 139.275 71.0902C139.146 71.1358 139.011 71.1589 138.874 71.1586C138.564 71.1509 138.264 71.0428 138.022 70.8511C137.905 70.7549 137.83 70.6168 137.816 70.4669C137.801 70.317 137.847 70.1673 137.943 70.0506C138.04 69.9321 138.181 69.8557 138.334 69.8374C138.487 69.8192 138.642 69.8606 138.765 69.953C138.795 69.9752 138.828 69.9918 138.864 70.0018C138.864 70.0018 139.062 69.8797 139.191 69.1232C139.458 67.5515 138.295 62.1532 137.824 60.2057C137.789 60.0562 137.814 59.8988 137.896 59.768C137.978 59.6372 138.109 59.5436 138.26 59.5077V59.5077Z" fill="#252362"/>
<path d="M138.302 82.0346V87.4037C131.812 85.217 126.375 80.6923 126.207 80.5703C128.187 81.7564 130.594 82.0346 132.901 82.3079C134.886 82.5178 136.545 82.6887 138.302 82.0346Z" fill="#252362"/>
<path d="M126.299 80.3984L126.086 80.6913C126.14 80.7352 131.686 85.3624 138.241 87.5735L138.483 87.6564V81.7749L138.236 81.8676C136.473 82.5217 134.745 82.3167 132.918 82.1068C130.616 81.8383 128.235 81.5601 126.299 80.3984ZM127.65 81.4381C129.342 81.9846 131.094 82.3287 132.869 82.4631C134.666 82.673 136.335 82.8731 138.112 82.2923V87.1488C134.364 85.7511 130.841 83.8278 127.65 81.4381Z" fill="#252362"/>
<path d="M95.7776 200.65C110.334 197.78 159.334 201.138 189.902 200.65C220.469 200.162 219.984 209.26 219.984 209.26C231.629 236.526 178.742 236.526 156.908 237.482C135.074 238.439 128.286 236.506 105.482 230.307C82.6772 224.108 81.2216 203.52 95.7776 200.65Z" fill="#E6E6E6"/>
<path d="M85.7309 210.959C85.4685 218.129 91.4246 227.066 105.327 230.854L105.921 231.015C124.735 236.149 132.573 238.282 147.376 238.282C150.253 238.282 153.397 238.204 156.937 238.048C158.387 237.985 159.977 237.926 161.68 237.863C180.494 237.16 212.027 235.979 220.221 223.298C222.756 219.369 222.874 214.605 220.562 209.143C220.562 208.704 220.349 207.449 218.923 205.99C216.121 203.125 208.818 199.776 189.881 200.074C178.092 200.26 163.447 199.874 149.282 199.498C126.329 198.888 104.644 198.312 95.6479 200.089C89.7413 201.25 85.9339 205.443 85.7309 210.959ZM86.8944 210.998C87.0776 206.019 90.5235 202.266 95.8904 201.207C104.763 199.459 126.379 200.03 149.267 200.64C163.437 201.016 178.092 201.402 189.91 201.221C190.678 201.221 191.425 201.221 192.153 201.221C209.754 201.221 215.918 204.638 218.008 206.722C219.409 208.113 219.404 209.206 219.399 209.25C219.398 209.334 219.413 209.416 219.443 209.494C221.642 214.644 221.572 219.086 219.24 222.697C211.368 234.875 180.236 236.037 161.635 236.735C159.932 236.799 158.338 236.857 156.882 236.921C135.335 237.868 128.587 236.027 106.228 229.931L105.634 229.765C92.3455 226.124 86.6469 217.719 86.8994 210.998H86.8944Z" fill="#252362"/>
<path d="M117.368 172.662C136.524 175.59 135.687 178.553 147.45 178.88C163.224 179.319 167.938 174.043 188.688 169.792C193.876 168.728 229.514 161.401 232.841 169.304C236.064 176.976 211.784 196.637 187.232 206.135C166.933 213.989 148.282 214.223 136.291 213.31C136.291 213.31 83.8099 212.578 72.685 184.025C72.0512 182.394 71.0759 179.285 72.4523 176.469C77.2845 166.56 106.392 170.992 117.368 172.662Z" fill="white"/>
<path d="M71.7762 176.16C70.682 178.401 70.7513 181.139 71.9792 184.302C74.5735 190.95 79.5938 196.66 86.8966 201.273C92.6992 204.934 99.9525 207.901 108.453 210.102C117.548 212.397 126.867 213.724 136.248 214.061C139.516 214.311 142.756 214.437 145.967 214.437C160.174 214.501 174.265 211.923 187.501 206.837C207.622 199.028 228.942 183.692 233.13 173.983C233.962 172.031 234.12 170.391 233.526 169.034C231.967 165.329 224.763 164.153 211.494 165.442C203.801 166.253 196.156 167.461 188.591 169.058H188.526C182.065 170.397 175.696 172.133 169.455 174.257C162.093 176.658 156.77 178.391 147.463 178.132C141.581 177.966 138.897 177.122 135.189 175.955C131.481 174.789 126.916 173.359 117.474 171.919C112.028 171.094 101.908 169.551 92.6051 169.478C80.9851 169.385 73.9794 171.626 71.7762 176.16ZM73.1278 176.8C75.0587 172.846 81.599 170.889 92.5952 170.986C101.794 171.064 111.85 172.592 117.246 173.427C126.579 174.847 131.109 176.268 134.738 177.41C138.566 178.615 141.328 179.484 147.423 179.655C156.998 179.923 162.707 178.059 169.93 175.706C176.117 173.599 182.432 171.877 188.838 170.552H188.898C202.097 167.848 212.97 166.486 220.53 166.486C227.169 166.486 231.259 167.536 232.145 169.644C232.551 170.62 232.422 171.899 231.754 173.446C229.882 177.786 224.025 183.745 215.683 189.798C206.821 196.207 197.173 201.484 186.967 205.505C171.242 211.591 154.216 213.988 136.352 212.631H136.308C127.031 212.305 117.817 210.996 108.825 208.726C95.7639 205.344 79.0146 198.276 73.3902 183.833C72.3059 180.987 72.2168 178.64 73.1278 176.78V176.8Z" fill="#252362"/>
<path d="M233.016 169.436C238.269 173.746 235.328 184.635 234.298 188.447C228.357 210.387 179.089 222.765 172.677 224.322L162.488 195.144L227.773 167.664C229.67 167.672 231.512 168.295 233.016 169.436V169.436Z" fill="white"/>
<path d="M161.776 195.384L171.965 224.562C172.018 224.706 172.114 224.83 172.241 224.917C172.367 225.005 172.519 225.051 172.673 225.05C172.734 225.057 172.796 225.057 172.857 225.05C182.204 222.78 229.15 210.358 235.017 188.648C236.136 184.504 239.116 173.492 233.492 168.875C231.868 167.616 229.864 166.929 227.798 166.923C227.688 166.918 227.578 166.938 227.476 166.981L162.192 194.461C162.017 194.534 161.876 194.67 161.799 194.841C161.722 195.013 161.713 195.207 161.776 195.384V195.384ZM163.425 195.554L227.907 168.411C229.583 168.433 231.206 168.992 232.531 170.003C237.418 174.015 234.512 184.733 233.566 188.257C231.175 197.116 220.728 205.795 203.365 213.35C193.589 217.508 183.489 220.882 173.164 223.439L163.425 195.554Z" fill="#252362"/>
<path d="M146.354 203.485C151.389 194.875 151.889 190.487 155.231 190.165C156.85 190.009 158.044 190.907 163.683 195.48C166.198 197.52 169.456 200.171 173.258 203.29L167.896 216.039C165.969 215.477 163.964 215.215 161.955 215.263C148.057 215.619 138.462 231.443 135.358 229.447C134.863 229.144 134.571 228.432 134.779 225.986C135.531 217.288 140.552 213.398 146.354 203.485Z" fill="#252362"/>
<path d="M134.369 225.951C134.171 228.235 134.369 229.314 135.131 229.792C135.383 229.959 135.68 230.046 135.983 230.041C137.404 230.041 139.344 228.343 142.043 225.99C146.925 221.729 153.608 215.886 161.971 215.676C163.935 215.627 165.894 215.883 167.778 216.433L168.14 216.54L173.764 203.162L173.526 202.966C170.368 200.365 167.149 197.729 163.951 195.157C158.262 190.549 156.995 189.578 155.193 189.754C152.747 189.988 151.727 192.121 149.826 195.991C148.875 197.944 147.692 200.384 145.994 203.279C144.211 206.324 142.488 208.824 140.968 211.03C137.438 216.14 134.894 219.84 134.369 225.951ZM135.205 226.019C135.701 220.108 138.206 216.487 141.642 211.474C143.172 209.258 144.904 206.744 146.702 203.664C148.42 200.736 149.608 198.295 150.564 196.343C152.371 192.624 153.282 190.759 155.252 190.569C156.658 190.432 157.772 191.232 163.397 195.791C166.511 198.315 169.65 200.877 172.734 203.415L167.635 215.545C165.937 215.088 164.186 214.855 162.426 214.852H161.931C153.262 215.071 146.162 221.275 141.464 225.375C138.805 227.698 136.512 229.704 135.572 229.104C135.329 228.943 135.002 228.44 135.205 226.034V226.019Z" fill="#252362"/>
<path d="M119.193 87.4062L139.2 88.4459C140.232 89.4513 140.99 90.6969 141.404 92.0676C142.006 94.2531 141.743 96.583 140.666 98.5837C138.368 99.8009 135.89 100.656 133.323 101.117C124.793 102.64 117.871 99.2719 115.327 97.8613C115.062 96.0451 115.187 94.1944 115.693 92.4288C116.822 88.6021 119.178 87.4111 119.193 87.4062Z" fill="#2857E5"/>
<path d="M115.059 92.242C114.524 94.0958 114.391 96.0399 114.668 97.9479L114.718 98.2749L115.01 98.436C119.274 100.82 124.08 102.103 128.982 102.165C130.476 102.166 131.967 102.033 133.438 101.77C136.073 101.296 138.618 100.418 140.978 99.1681L141.161 99.0705L141.26 98.8899C142.418 96.7373 142.698 94.2301 142.042 91.8808C141.598 90.4034 140.782 89.0604 139.671 87.976L139.488 87.7955H139.23L119.708 86.7851L119.659 86.6094L118.976 86.79L118.515 86.9413V87.0584C117.703 87.5904 115.985 89.0645 115.059 92.242ZM116.352 92.613C117.223 89.6258 118.896 88.3763 119.367 88.0785H119.52L138.908 89.084C139.772 89.9773 140.408 91.0596 140.765 92.242C141.31 94.1991 141.1 96.2857 140.176 98.0992C137.99 99.2316 135.643 100.031 133.215 100.471C125.679 101.814 119.278 99.2316 115.96 97.4451C115.767 95.8247 115.9 94.1826 116.352 92.613V92.613Z" fill="#252362"/>
<path d="M172.208 197.919C179.397 196.659 180.887 196.454 182.214 197.372C184.967 199.266 183.204 203.337 183.328 213.269C183.452 224.735 185.893 230.548 182.214 238.489C181.179 240.72 180.556 241.193 179.991 241.232C176.293 241.467 175.803 223.036 163.866 216.012C162.136 215.003 160.259 214.262 158.301 213.816C158.859 209.26 159.415 204.692 159.969 200.11C164.846 199.217 169 198.48 172.208 197.919Z" fill="#252362"/>
<path d="M159.596 199.761L157.844 214.14L158.21 214.223C160.129 214.652 161.967 215.377 163.656 216.371C170.84 220.598 173.761 228.915 175.9 234.992C177.301 238.984 178.237 241.649 179.92 241.649H180.029C180.916 241.596 181.638 240.756 182.609 238.667C185.198 233.074 184.812 228.622 184.282 222.458C184.054 219.802 183.787 216.791 183.757 213.272C183.723 209.918 183.896 207.229 184.04 205.071C184.322 200.786 184.475 198.424 182.465 197.037C180.98 196.017 179.396 196.247 172.142 197.525C168.082 198.238 163.963 198.99 159.903 199.722L159.596 199.761ZM158.77 213.506L160.354 200.464C164.315 199.741 168.325 199 172.281 198.331C176.549 197.584 178.762 197.223 180.099 197.223C180.764 197.173 181.426 197.345 181.98 197.711C183.604 198.834 183.465 200.898 183.198 205.032C183.054 207.204 182.876 209.913 182.911 213.296C182.95 216.844 183.208 219.871 183.441 222.545C183.96 228.583 184.337 232.942 181.836 238.34C180.816 240.537 180.282 240.82 179.97 240.839H179.925C178.831 240.839 177.836 238.008 176.687 234.738C174.633 228.881 171.528 220.061 164.082 215.678C162.43 214.699 160.639 213.968 158.77 213.506V213.506Z" fill="#252362"/>
<path d="M97.9591 178.883L166.645 196.283C167.204 199.876 168.13 209.116 162.971 218.585C160.994 222.208 158.369 225.449 155.223 228.151C140.191 223.817 127.116 220.02 110.589 215.236C101.232 212.527 94.0676 210.458 89.7256 203.756C85.8291 197.743 83.7249 187.259 89.2305 182.012C92.008 179.376 95.8104 178.932 97.9591 178.883Z" fill="white"/>
<path d="M88.7075 181.478C85.316 184.699 84.9249 189.336 85.1873 192.655C85.5529 196.734 86.8841 200.671 89.0738 204.15C93.5644 211.081 100.956 213.223 110.363 215.937L124.919 220.15C135.064 223.078 144.644 225.865 155.022 228.857C155.142 228.891 155.27 228.896 155.392 228.869C155.515 228.843 155.629 228.787 155.725 228.706C158.94 225.949 161.624 222.642 163.646 218.944C168.597 209.87 168.102 200.792 167.399 196.184C167.376 196.04 167.31 195.907 167.211 195.799C167.112 195.692 166.983 195.615 166.84 195.579L98.1441 178.163C98.0752 178.154 98.0051 178.154 97.9362 178.163C94.1041 178.232 90.9107 179.384 88.7075 181.478ZM89.7521 182.542C92.1484 180.262 95.4706 179.691 97.8718 179.613L165.968 196.862C166.617 201.421 166.879 209.831 162.309 218.222C160.436 221.648 157.97 224.726 155.022 227.315C144.798 224.386 135.331 221.624 125.315 218.724L110.784 214.512C101.338 211.788 94.5299 209.836 90.3611 203.354C86.8954 198.019 84.306 187.716 89.7521 182.542V182.542Z" fill="#252362"/>
<path d="M204.238 207.197C214.992 203.663 226.295 192.603 226.409 192.49C226.521 192.392 226.667 192.34 226.818 192.344C226.968 192.348 227.111 192.409 227.217 192.514C227.323 192.619 227.385 192.759 227.389 192.907C227.394 193.056 227.341 193.2 227.241 193.31C226.77 193.774 215.631 204.673 204.61 208.295C204.549 208.314 204.485 208.324 204.421 208.324C204.284 208.321 204.152 208.27 204.049 208.181C203.945 208.091 203.877 207.969 203.855 207.836C203.833 207.702 203.86 207.565 203.93 207.448C204 207.331 204.109 207.242 204.238 207.197Z" fill="#252362"/>
<path d="M189.968 212.964C193.859 212.266 198.914 209.435 198.964 209.411C199.031 209.367 199.107 209.336 199.186 209.322C199.266 209.308 199.348 209.31 199.426 209.328C199.505 209.346 199.579 209.38 199.644 209.428C199.709 209.475 199.763 209.535 199.804 209.605C199.844 209.674 199.869 209.75 199.878 209.83C199.887 209.909 199.879 209.989 199.855 210.065C199.831 210.142 199.791 210.212 199.739 210.272C199.686 210.333 199.621 210.382 199.548 210.417C199.335 210.534 194.27 213.37 190.176 214.102C190.141 214.106 190.106 214.106 190.072 214.102C189.92 214.112 189.77 214.062 189.654 213.965C189.538 213.867 189.465 213.728 189.452 213.578C189.438 213.428 189.484 213.279 189.581 213.163C189.677 213.046 189.816 212.972 189.968 212.955V212.964Z" fill="#252362"/>
<path d="M124.25 213.025C128.177 215.139 152.506 220.879 152.754 220.937C152.891 220.973 153.01 221.057 153.09 221.172C153.17 221.288 153.204 221.429 153.188 221.568C153.171 221.707 153.103 221.835 152.998 221.929C152.893 222.023 152.757 222.076 152.615 222.079H152.481C151.491 221.84 127.751 216.222 123.686 214.06C123.549 213.986 123.447 213.862 123.403 213.714C123.359 213.566 123.376 213.407 123.451 213.272C123.526 213.136 123.652 213.036 123.802 212.992C123.952 212.949 124.113 212.966 124.25 213.04V213.025Z" fill="#252362"/>
<path d="M149.871 199.338C149.95 199.968 150.712 200.636 151.762 201.29C151.543 201.338 151.322 201.371 151.098 201.388C151.019 201.391 150.941 201.409 150.869 201.443C150.797 201.476 150.732 201.523 150.679 201.582C150.626 201.641 150.586 201.709 150.561 201.784C150.535 201.858 150.525 201.937 150.532 202.015C150.538 202.093 150.561 202.169 150.598 202.239C150.635 202.308 150.686 202.37 150.747 202.419C150.809 202.469 150.88 202.505 150.957 202.527C151.033 202.548 151.113 202.555 151.192 202.545C151.858 202.514 152.508 202.331 153.089 202.008C154.662 202.753 156.279 203.405 157.931 203.96C157.993 203.98 158.058 203.989 158.124 203.99C158.262 203.988 158.395 203.939 158.501 203.85C158.606 203.762 158.676 203.64 158.699 203.505C158.722 203.371 158.696 203.233 158.626 203.115C158.557 202.998 158.447 202.908 158.317 202.862C156.827 202.357 155.366 201.772 153.94 201.11C153.992 201.003 154.035 200.892 154.069 200.778C154.176 200.311 154.138 199.824 153.962 199.379C153.785 198.934 153.478 198.55 153.079 198.279C152.703 197.997 152.246 197.839 151.774 197.829C151.302 197.818 150.838 197.955 150.45 198.22C150.253 198.33 150.093 198.494 149.99 198.693C149.887 198.892 149.845 199.116 149.871 199.338V199.338ZM151.044 199.221L151.103 199.177C151.283 199.052 151.497 198.984 151.717 198.982C151.959 198.984 152.194 199.065 152.386 199.211C152.591 199.342 152.753 199.53 152.851 199.752C152.949 199.973 152.978 200.218 152.935 200.456C152.925 200.496 152.91 200.536 152.891 200.573C151.831 200.012 151.138 199.523 151.044 199.221Z" fill="#252362"/>
<path d="M192.484 194.239C192.533 194.336 192.609 194.418 192.702 194.475C192.796 194.532 192.904 194.562 193.014 194.561C193.105 194.562 193.195 194.54 193.276 194.498C194.704 193.809 195.952 192.808 196.925 191.569C197.782 191.355 198.851 191.032 200.188 190.559C200.263 190.535 200.333 190.497 200.393 190.446C200.453 190.395 200.502 190.333 200.537 190.263C200.572 190.193 200.593 190.117 200.597 190.039C200.602 189.962 200.591 189.884 200.564 189.81C200.537 189.737 200.496 189.669 200.442 189.612C200.389 189.555 200.324 189.509 200.252 189.476C200.18 189.444 200.102 189.427 200.023 189.425C199.944 189.423 199.865 189.437 199.792 189.466C199.109 189.71 198.425 189.929 197.777 190.115C197.938 189.763 198.024 189.383 198.029 188.997C198.039 188.778 197.981 188.561 197.865 188.374C197.748 188.187 197.578 188.039 197.376 187.948C196.688 187.66 195.732 188.075 194.455 189.222C193.667 189.924 192.925 190.735 193.355 191.442C193.464 191.623 193.707 192.018 195.049 191.906C194.365 192.537 193.591 193.067 192.751 193.478C192.616 193.546 192.512 193.663 192.462 193.805C192.412 193.947 192.42 194.103 192.484 194.239V194.239ZM196.242 190.505C195.691 190.65 195.127 190.74 194.559 190.774V190.774C194.767 190.518 194.997 190.282 195.247 190.066C196.197 189.217 196.688 189.046 196.866 189.017C196.798 189.559 196.582 190.073 196.242 190.505V190.505Z" fill="#252362"/>
<path d="M186.91 196.698L189.851 195.614C189.993 195.576 190.144 195.592 190.275 195.658C190.406 195.724 190.507 195.835 190.558 195.971C190.61 196.107 190.608 196.257 190.553 196.391C190.498 196.526 190.395 196.635 190.262 196.698L187.326 197.786C187.26 197.809 187.189 197.821 187.118 197.82C186.999 197.822 186.881 197.786 186.783 197.719C186.685 197.651 186.61 197.556 186.569 197.445C186.514 197.301 186.519 197.142 186.583 197.002C186.647 196.862 186.765 196.753 186.91 196.698V196.698Z" fill="#252362"/>
<path d="M224.375 173.342C224.375 173.418 224.39 173.494 224.42 173.564C224.45 173.634 224.493 173.698 224.548 173.751C224.603 173.805 224.668 173.847 224.739 173.876C224.811 173.905 224.887 173.919 224.964 173.918C225.212 173.918 225.385 173.806 225.954 173.43C226.895 172.796 229.103 171.312 230.212 171.776C230.589 171.932 230.841 172.361 230.965 173.054C230.973 173.134 230.997 173.211 231.037 173.28C231.076 173.35 231.129 173.411 231.194 173.459C231.258 173.508 231.332 173.543 231.41 173.562C231.489 173.581 231.571 173.584 231.65 173.57C231.73 173.557 231.806 173.527 231.874 173.483C231.942 173.44 231.999 173.383 232.044 173.316C232.088 173.249 232.118 173.174 232.132 173.096C232.146 173.017 232.143 172.937 232.123 172.859C231.93 171.751 231.44 171.029 230.668 170.707C228.97 169.999 226.578 171.605 225.291 172.474L224.796 172.791C224.675 172.826 224.569 172.899 224.493 172.998C224.418 173.098 224.376 173.218 224.375 173.342V173.342Z" fill="#252362"/>
<path d="M132.165 191.602L144.651 194.135C144.792 194.166 144.915 194.247 144.999 194.362C145.083 194.478 145.121 194.619 145.107 194.76C145.092 194.901 145.026 195.032 144.92 195.128C144.814 195.224 144.676 195.279 144.533 195.282H144.414L131.952 192.749C131.8 192.718 131.666 192.628 131.581 192.5C131.495 192.372 131.465 192.215 131.497 192.065C131.528 191.915 131.619 191.783 131.749 191.699C131.879 191.615 132.037 191.585 132.19 191.616L132.165 191.602Z" fill="#252362"/>
<path d="M124.138 189.438L128.916 190.902C129.048 190.945 129.16 191.033 129.233 191.15C129.306 191.267 129.335 191.405 129.314 191.541C129.293 191.676 129.224 191.8 129.12 191.891C129.015 191.981 128.881 192.032 128.742 192.035C128.684 192.037 128.625 192.029 128.569 192.01L123.791 190.546C123.651 190.494 123.536 190.391 123.47 190.258C123.404 190.125 123.392 189.973 123.436 189.832C123.481 189.69 123.578 189.571 123.708 189.498C123.838 189.425 123.992 189.403 124.138 189.438V189.438Z" fill="#252362"/>
<path d="M108.028 165.616C110.712 164.376 116.94 161.97 124.02 163.571C126.496 164.132 129.149 165.567 134.447 168.452C136.794 169.721 138.779 170.927 138.566 171.712C138.437 172.201 137.576 172.362 136.828 172.44C138.234 172.669 139.106 173.675 139.022 174.539C138.979 174.778 138.886 175.007 138.75 175.21C138.613 175.413 138.436 175.587 138.229 175.72C138.229 175.72 140.21 178.468 136.917 179.019C136.917 179.019 138.591 181.548 134.843 182.05C131.095 182.553 120.822 178.966 120.822 178.966C120.822 178.966 109.845 177.672 105.365 174.407C104.738 173.985 104.266 173.376 104.018 172.669C103.067 169.658 107.424 166.099 108.028 165.616Z" fill="white"/>
<path d="M103.647 172.765C103.912 173.559 104.434 174.245 105.133 174.717C109.549 177.939 119.867 179.242 120.733 179.345C121.486 179.608 129.868 182.488 134.027 182.488C134.318 182.49 134.609 182.474 134.898 182.439C136.284 182.249 137.166 181.766 137.517 181.004C137.628 180.731 137.683 180.439 137.678 180.145C137.672 179.85 137.608 179.56 137.488 179.291C137.827 179.226 138.146 179.085 138.421 178.877C138.695 178.67 138.916 178.402 139.067 178.095C139.423 177.246 139.007 176.289 138.74 175.806C139.11 175.493 139.35 175.057 139.413 174.581C139.422 174.162 139.314 173.749 139.1 173.387C138.886 173.026 138.574 172.729 138.2 172.531C138.372 172.476 138.528 172.382 138.657 172.258C138.786 172.133 138.884 171.981 138.943 171.813C139.215 170.813 137.641 169.744 134.636 168.118C129.313 165.234 126.645 163.789 124.105 163.237C117.575 161.773 111.668 163.55 107.861 165.312C107.832 165.324 107.805 165.341 107.781 165.361C106.568 166.293 102.672 169.705 103.647 172.765ZM108.237 165.932C111.652 164.322 115.379 163.461 119.164 163.408C120.769 163.412 122.368 163.596 123.932 163.955C126.363 164.502 129.001 165.932 134.255 168.777C137.646 170.608 138.265 171.325 138.215 171.599C138.215 171.599 138.116 171.906 136.809 172.043C136.717 172.057 136.634 172.104 136.574 172.173C136.513 172.243 136.48 172.332 136.48 172.423C136.48 172.515 136.513 172.604 136.574 172.673C136.634 172.743 136.717 172.79 136.809 172.804C138.007 172.999 138.745 173.834 138.681 174.493C138.642 174.677 138.565 174.851 138.456 175.006C138.348 175.16 138.208 175.291 138.047 175.391C137.964 175.452 137.909 175.541 137.892 175.642C137.875 175.742 137.899 175.845 137.958 175.928C138.166 176.226 138.661 177.143 138.389 177.788C138.21 178.207 137.705 178.49 136.903 178.627C136.84 178.639 136.781 178.666 136.73 178.705C136.679 178.744 136.638 178.794 136.611 178.852C136.585 178.91 136.574 178.974 136.58 179.038C136.585 179.102 136.606 179.164 136.641 179.218C136.782 179.432 136.874 179.674 136.911 179.927C136.948 180.18 136.928 180.437 136.854 180.682C136.621 181.17 135.923 181.522 134.839 181.658C131.224 182.146 121.105 178.627 120.976 178.593C120.948 178.588 120.92 178.588 120.892 178.593C120.783 178.593 109.97 177.27 105.623 174.102C105.06 173.732 104.635 173.191 104.415 172.56C103.558 169.91 107.365 166.654 108.237 165.946V165.932Z" fill="#252362"/>
<path d="M127.536 167.919L136.988 172.078C137.078 172.118 137.149 172.192 137.186 172.283C137.223 172.374 137.223 172.475 137.186 172.566C137.155 172.634 137.105 172.691 137.042 172.732C136.979 172.772 136.905 172.794 136.829 172.795C136.775 172.794 136.721 172.782 136.671 172.761L127.215 168.602C127.121 168.56 127.049 168.482 127.013 168.387C126.977 168.292 126.981 168.187 127.023 168.094C127.065 168.002 127.143 167.929 127.239 167.893C127.335 167.856 127.442 167.859 127.536 167.9V167.919Z" fill="#252362"/>
<path d="M127.281 170.965L138.391 175.334C138.478 175.366 138.55 175.427 138.595 175.506C138.641 175.585 138.656 175.677 138.639 175.767C138.622 175.856 138.573 175.937 138.501 175.994C138.43 176.052 138.34 176.082 138.248 176.081C138.198 176.081 138.149 176.071 138.104 176.051L127.004 171.683C126.907 171.645 126.83 171.57 126.789 171.476C126.748 171.382 126.747 171.275 126.786 171.18C126.825 171.085 126.9 171.009 126.996 170.969C127.092 170.928 127.199 170.927 127.296 170.965H127.281Z" fill="#252362"/>
<path d="M127.412 175.032L137.056 178.649C137.15 178.686 137.226 178.758 137.269 178.848C137.311 178.939 137.316 179.042 137.284 179.137C137.256 179.211 137.206 179.274 137.141 179.319C137.075 179.363 136.997 179.387 136.917 179.386C136.87 179.385 136.823 179.377 136.779 179.362L127.134 175.74C127.039 175.705 126.961 175.634 126.918 175.542C126.875 175.451 126.871 175.346 126.907 175.252C126.945 175.158 127.02 175.082 127.114 175.041C127.208 175 127.315 174.997 127.412 175.032V175.032Z" fill="#252362"/>
<path d="M197.27 158.75C199.954 157.505 206.182 155.103 213.262 156.704C215.738 157.261 218.391 158.696 223.689 161.585C226.036 162.854 228.021 164.06 227.808 164.841C227.68 165.329 226.818 165.49 226.071 165.568C227.482 165.798 228.348 166.803 228.264 167.672C228.222 167.911 228.129 168.14 227.993 168.342C227.857 168.544 227.679 168.717 227.472 168.848C227.472 168.848 229.452 171.596 226.16 172.153C226.16 172.153 227.833 174.676 224.085 175.184C220.337 175.691 210.064 172.099 210.064 172.099C210.064 172.099 199.087 170.806 194.607 167.535C193.979 167.115 193.506 166.505 193.26 165.798C192.309 162.791 196.666 159.233 197.27 158.75Z" fill="white"/>
<path d="M192.889 165.898C193.155 166.691 193.676 167.377 194.374 167.85C198.791 171.067 209.109 172.375 209.975 172.478C210.733 172.741 219.11 175.621 223.274 175.621C223.563 175.622 223.853 175.604 224.14 175.567C225.526 175.382 226.408 174.898 226.759 174.132C226.871 173.86 226.927 173.569 226.921 173.275C226.916 172.981 226.851 172.692 226.729 172.424C227.069 172.359 227.389 172.217 227.664 172.008C227.938 171.8 228.159 171.531 228.309 171.223C228.665 170.379 228.249 169.417 227.982 168.939C228.353 168.625 228.593 168.187 228.655 167.709C228.664 167.291 228.555 166.879 228.341 166.518C228.127 166.157 227.816 165.861 227.442 165.664C227.614 165.609 227.77 165.515 227.899 165.391C228.028 165.266 228.126 165.114 228.185 164.946C228.457 163.946 226.883 162.877 223.878 161.251C218.555 158.367 215.887 156.922 213.352 156.37C206.816 154.906 200.91 156.683 197.107 158.44C197.078 158.453 197.05 158.47 197.023 158.489C195.82 159.406 191.914 162.813 192.889 165.898ZM197.479 159.065C200.893 157.453 204.621 156.592 208.406 156.541C210.01 156.539 211.609 156.715 213.174 157.063C215.604 157.615 218.243 159.045 223.501 161.891C226.888 163.721 227.507 164.434 227.432 164.712C227.432 164.712 227.333 165.015 226.026 165.156C225.935 165.171 225.851 165.217 225.791 165.287C225.73 165.356 225.697 165.445 225.697 165.537C225.697 165.628 225.73 165.717 225.791 165.787C225.851 165.857 225.935 165.903 226.026 165.917C227.225 166.113 227.962 166.947 227.898 167.606C227.858 167.79 227.782 167.964 227.673 168.118C227.564 168.273 227.425 168.404 227.264 168.504C227.18 168.564 227.124 168.654 227.107 168.755C227.09 168.855 227.115 168.958 227.175 169.041C227.388 169.339 227.878 170.257 227.606 170.896C227.428 171.321 226.923 171.604 226.12 171.74C226.057 171.751 225.997 171.777 225.946 171.816C225.895 171.856 225.854 171.907 225.828 171.965C225.802 172.024 225.792 172.088 225.797 172.152C225.802 172.216 225.823 172.277 225.858 172.331C226.001 172.545 226.094 172.787 226.13 173.04C226.167 173.293 226.147 173.551 226.071 173.795C225.838 174.283 225.14 174.635 224.056 174.772C220.442 175.26 210.322 171.74 210.193 171.701H210.109C210 171.701 199.187 170.384 194.84 167.216C194.278 166.845 193.854 166.303 193.632 165.673C192.8 163.018 196.607 159.763 197.479 159.065Z" fill="#252362"/>
<path d="M216.777 161.031L226.229 165.184C226.31 165.221 226.377 165.283 226.417 165.361C226.457 165.44 226.469 165.53 226.451 165.616C226.432 165.702 226.384 165.779 226.315 165.835C226.246 165.89 226.16 165.921 226.071 165.921C226.016 165.922 225.962 165.911 225.912 165.887L216.461 161.733C216.373 161.688 216.307 161.611 216.275 161.519C216.243 161.427 216.247 161.326 216.288 161.237C216.328 161.148 216.401 161.077 216.491 161.039C216.582 161.001 216.685 160.998 216.777 161.031V161.031Z" fill="#252362"/>
<path d="M216.523 164.097L227.623 168.466C227.715 168.505 227.789 168.577 227.829 168.667C227.87 168.758 227.874 168.86 227.841 168.954C227.81 169.024 227.759 169.085 227.694 169.127C227.628 169.17 227.552 169.192 227.474 169.193C227.425 169.192 227.377 169.184 227.331 169.168L216.23 164.8C216.183 164.781 216.139 164.753 216.102 164.718C216.065 164.682 216.036 164.64 216.016 164.593C215.996 164.546 215.985 164.496 215.984 164.446C215.984 164.395 215.993 164.344 216.013 164.297C216.032 164.25 216.06 164.207 216.096 164.171C216.132 164.135 216.175 164.106 216.222 164.086C216.27 164.066 216.321 164.055 216.372 164.055C216.424 164.054 216.475 164.064 216.523 164.083V164.097Z" fill="#252362"/>
<path d="M216.654 168.148L226.298 171.765C226.387 171.794 226.462 171.853 226.51 171.932C226.557 172.011 226.574 172.105 226.557 172.195C226.54 172.286 226.491 172.367 226.418 172.425C226.345 172.482 226.253 172.511 226.16 172.507C226.114 172.516 226.067 172.516 226.021 172.507L216.377 168.89C216.324 168.876 216.275 168.851 216.233 168.817C216.191 168.783 216.157 168.74 216.132 168.692C216.107 168.645 216.093 168.592 216.09 168.539C216.088 168.485 216.096 168.431 216.115 168.381C216.135 168.331 216.165 168.285 216.203 168.247C216.241 168.209 216.287 168.179 216.338 168.16C216.389 168.14 216.443 168.131 216.497 168.133C216.552 168.135 216.605 168.149 216.654 168.173V168.148Z" fill="#252362"/>
<path d="M150.409 132.796C144.899 134.607 116.247 134.26 116.247 134.26L114.762 119.773H150.018L150.409 132.796Z" fill="white"/>
<path d="M114.231 119.26C114.161 119.337 114.109 119.428 114.077 119.526C114.044 119.624 114.033 119.728 114.042 119.831L115.528 134.313C115.546 134.493 115.632 134.661 115.768 134.784C115.904 134.906 116.081 134.975 116.265 134.976C116.587 134.976 118.919 135.011 122.246 135.011C130.995 135.011 146.63 134.815 150.665 133.493C150.814 133.438 150.941 133.339 151.03 133.209C151.119 133.08 151.164 132.926 151.16 132.77L150.789 119.733C150.784 119.541 150.703 119.359 150.563 119.225C150.423 119.091 150.236 119.016 150.041 119.016H114.79C114.685 119.015 114.58 119.037 114.484 119.079C114.388 119.121 114.301 119.183 114.231 119.26ZM115.617 120.509H149.319L149.645 132.253C143.783 133.693 121.137 133.556 116.939 133.517L115.617 120.509Z" fill="#252362"/>
<path d="M115.669 134.24C115.669 134.316 115.684 134.391 115.714 134.461C115.743 134.531 115.787 134.595 115.842 134.649C115.896 134.702 115.961 134.745 116.033 134.773C116.104 134.802 116.181 134.816 116.258 134.816C117.951 134.816 119.937 133.127 121.412 131.018C123.095 133.054 125.596 134.664 128.759 134.581C130.266 134.561 131.728 134.078 132.943 133.2C134.591 134.178 136.497 134.65 138.419 134.557C141.681 134.464 143.756 132.248 144.815 129.822C146.761 129.719 148.693 129.444 150.588 129.002C150.668 128.989 150.744 128.96 150.812 128.917C150.879 128.873 150.937 128.817 150.982 128.751C151.027 128.684 151.057 128.61 151.071 128.531C151.085 128.453 151.083 128.373 151.064 128.295C151.045 128.218 151.011 128.145 150.962 128.081C150.914 128.018 150.853 127.964 150.783 127.925C150.712 127.886 150.635 127.861 150.555 127.852C150.474 127.844 150.393 127.851 150.316 127.875C148.651 128.258 146.957 128.509 145.251 128.627C145.34 128.329 145.415 128.031 145.474 127.738C145.84 125.976 145.786 123.697 144.439 123.087C143.489 122.657 142.38 123.238 141.137 124.81C139.894 126.381 139.567 127.626 140.147 128.549C140.696 129.393 141.993 129.739 143.503 129.813C142.548 131.702 140.874 133.327 138.364 133.4C136.792 133.474 135.23 133.125 133.844 132.39C134.534 131.65 135.071 130.785 135.423 129.842C136.414 127.294 136.092 124.429 134.72 123.17C134.329 122.816 133.835 122.592 133.308 122.531C132.781 122.47 132.248 122.574 131.784 122.828C129.7 123.804 128.735 125.976 129.309 128.427C129.714 130.017 130.625 131.439 131.908 132.483C130.946 133.077 129.835 133.397 128.7 133.405C125.799 133.488 123.536 131.897 122.051 129.954C122.726 128.838 123.2 127.614 123.452 126.337C123.783 124.336 123.11 122.955 121.56 122.433C120.377 122.047 119.719 122.525 119.427 122.843C118.387 123.995 118.852 126.489 119.773 128.451C120.026 128.983 120.318 129.497 120.645 129.988C119.328 131.995 117.515 133.63 116.233 133.63C116.155 133.633 116.079 133.651 116.008 133.684C115.938 133.716 115.874 133.762 115.822 133.819C115.769 133.875 115.729 133.942 115.703 134.014C115.676 134.086 115.665 134.163 115.669 134.24V134.24ZM143.999 128.685C142.592 128.685 141.493 128.47 141.152 127.943C140.865 127.499 141.186 126.65 142.063 125.542C142.939 124.434 143.548 124.136 143.825 124.136C143.864 124.128 143.905 124.128 143.944 124.136C144.355 124.322 144.711 125.6 144.315 127.504C144.238 127.905 144.132 128.299 143.999 128.685V128.685ZM130.477 128.197C130.116 126.694 130.408 124.78 132.294 123.921C132.544 123.8 132.818 123.732 133.096 123.721C133.411 123.721 133.713 123.842 133.938 124.058C134.814 124.863 135.22 127.162 134.334 129.471C134.009 130.333 133.503 131.118 132.849 131.775C131.669 130.872 130.83 129.606 130.467 128.178L130.477 128.197ZM120.867 128.012C119.907 125.976 119.842 124.204 120.333 123.668C120.384 123.608 120.449 123.561 120.522 123.532C120.595 123.502 120.675 123.49 120.753 123.497C120.909 123.501 121.063 123.531 121.209 123.585C122.199 123.902 122.551 124.776 122.318 126.191C122.132 127.141 121.798 128.056 121.328 128.905C121.158 128.609 121.005 128.304 120.867 127.992V128.012Z" fill="#252362"/>
<path d="M132.831 87.5395C132.906 87.5583 132.977 87.5915 133.039 87.6374C133.1 87.6832 133.153 87.7407 133.192 87.8066C133.231 87.8724 133.256 87.9453 133.267 88.021C133.277 88.0966 133.272 88.1735 133.252 88.2473C133.217 88.379 132.415 91.5175 134.915 92.3863C135.519 92.5913 135.737 92.4107 135.812 92.3522C136.47 91.8104 136.465 89.7164 136.252 88.4083C136.232 88.3302 136.229 88.2488 136.242 88.1693C136.255 88.0898 136.286 88.0139 136.33 87.9465C136.375 87.8791 136.434 87.8216 136.502 87.7777C136.571 87.7338 136.648 87.7044 136.729 87.6915C136.809 87.6786 136.892 87.6824 136.971 87.7026C137.05 87.7229 137.124 87.7591 137.188 87.8091C137.253 87.8591 137.305 87.9217 137.344 87.9929C137.382 88.0641 137.405 88.1425 137.411 88.2229C137.475 88.6133 137.995 92.0593 136.564 93.2405C136.248 93.5139 135.841 93.6648 135.42 93.6651C135.118 93.6599 134.819 93.6055 134.534 93.5041C131.722 92.5279 131.727 89.4626 132.118 87.9788C132.135 87.9035 132.167 87.8322 132.212 87.7692C132.257 87.7061 132.315 87.6526 132.381 87.6117C132.448 87.5708 132.521 87.5434 132.599 87.531C132.676 87.5186 132.755 87.5215 132.831 87.5395Z" fill="#252362"/>
<path d="M122.593 87.539C122.669 87.5241 122.748 87.5242 122.824 87.5392C122.9 87.5542 122.972 87.5839 123.037 87.6265C123.101 87.6691 123.156 87.7239 123.199 87.7876C123.242 87.8513 123.272 87.9228 123.287 87.9978C123.757 90.3553 125 93.855 126.173 93.855C126.24 93.8554 126.306 93.8391 126.365 93.8075C126.424 93.7759 126.474 93.7301 126.51 93.6744C127.228 92.8446 127.074 89.8721 126.807 88.1882C126.792 88.1118 126.793 88.0333 126.81 87.9573C126.827 87.8814 126.859 87.8095 126.904 87.746C126.95 87.6825 127.008 87.6286 127.075 87.5876C127.142 87.5465 127.216 87.5192 127.294 87.5071C127.372 87.495 127.452 87.4984 127.528 87.5172C127.605 87.536 127.676 87.5697 127.74 87.6164C127.803 87.663 127.855 87.7217 127.895 87.7889C127.935 87.8561 127.96 87.9305 127.97 88.0076C128.049 88.4957 128.703 92.9276 127.401 94.4261C127.254 94.6041 127.068 94.7474 126.857 94.8454C126.646 94.9434 126.416 94.9936 126.183 94.9922C123.628 94.9922 122.371 89.345 122.143 88.2126C122.115 88.0646 122.146 87.9117 122.23 87.7861C122.314 87.6604 122.444 87.5719 122.593 87.539V87.539Z" fill="#252362"/>
<path d="M147.793 100.101C148.07 100.296 154.63 105.075 155.749 115.354C155.764 115.507 155.718 115.659 155.619 115.778C155.521 115.897 155.379 115.972 155.224 115.988H155.16C155.015 115.988 154.875 115.935 154.767 115.84C154.66 115.744 154.591 115.613 154.576 115.471C153.516 105.709 147.149 101.082 147.104 101.033C147.034 100.992 146.973 100.937 146.926 100.871C146.878 100.805 146.845 100.731 146.829 100.652C146.812 100.573 146.812 100.491 146.83 100.412C146.847 100.333 146.88 100.259 146.928 100.193C146.976 100.128 147.038 100.073 147.108 100.033C147.179 99.9918 147.257 99.966 147.339 99.9569C147.42 99.9477 147.502 99.9554 147.581 99.9793C147.659 100.003 147.731 100.043 147.793 100.096V100.101Z" fill="#252362"/>
<path d="M155.013 118.126C155.163 118.082 155.324 118.098 155.461 118.171C155.599 118.245 155.701 118.369 155.746 118.516C155.79 118.668 156.875 122.236 156.875 123.749C156.875 123.903 156.813 124.05 156.702 124.159C156.592 124.268 156.442 124.329 156.285 124.329C156.129 124.329 155.979 124.268 155.869 124.159C155.758 124.05 155.696 123.903 155.696 123.749C155.696 122.631 154.919 119.844 154.622 118.868C154.596 118.794 154.586 118.715 154.591 118.637C154.597 118.559 154.619 118.483 154.656 118.414C154.692 118.344 154.743 118.283 154.804 118.233C154.866 118.184 154.937 118.147 155.013 118.126V118.126Z" fill="#252362"/>
<path d="M113.024 147.256C113.183 147.432 128.868 164.828 146.013 165.16C146.169 165.16 146.319 165.221 146.43 165.33C146.54 165.439 146.602 165.586 146.602 165.74C146.602 165.894 146.54 166.042 146.43 166.151C146.319 166.26 146.169 166.321 146.013 166.321C136.755 166.131 128.041 161.157 122.357 157.018C118.67 154.347 115.251 151.333 112.148 148.018C112.097 147.961 112.058 147.895 112.032 147.823C112.007 147.752 111.996 147.676 112.001 147.6C112.006 147.524 112.025 147.45 112.059 147.382C112.093 147.314 112.14 147.253 112.198 147.202C112.315 147.104 112.468 147.054 112.622 147.064C112.777 147.074 112.921 147.143 113.024 147.256V147.256Z" fill="#252362"/>
<path d="M118.987 152.984C119.175 153.037 138.4 158.192 150.916 152.906C150.988 152.867 151.068 152.844 151.149 152.838C151.231 152.831 151.313 152.842 151.39 152.869C151.468 152.895 151.539 152.937 151.598 152.993C151.658 153.048 151.706 153.115 151.738 153.189C151.77 153.263 151.786 153.343 151.785 153.424C151.784 153.505 151.766 153.584 151.732 153.658C151.698 153.731 151.649 153.797 151.588 153.851C151.527 153.904 151.455 153.945 151.377 153.97C146.921 155.854 141.732 156.478 136.816 156.478C130.692 156.417 124.598 155.619 118.67 154.101C118.593 154.084 118.52 154.05 118.456 154.004C118.392 153.958 118.338 153.899 118.297 153.832C118.257 153.764 118.23 153.689 118.22 153.612C118.21 153.534 118.215 153.455 118.237 153.379C118.258 153.304 118.295 153.233 118.344 153.172C118.394 153.111 118.456 153.061 118.526 153.024C118.596 152.987 118.673 152.964 118.752 152.957C118.832 152.95 118.912 152.959 118.987 152.984V152.984Z" fill="#252362"/>
<path d="M215.933 177.18H106.203V183.911H215.933V177.18Z" fill="#252362"/>
<path d="M216.118 177.008H106.027V184.075H216.118V177.008ZM215.772 183.739H106.374V177.345H215.757L215.772 183.739Z" fill="#252362"/>
<path d="M228.225 134.422L216.674 183.686L182.334 183.729C175.521 183.729 168.71 183.739 161.901 183.759L130.105 183.798C134.212 167.339 138.318 150.881 142.424 134.422H228.225Z" fill="#252362"/>
<path d="M142.258 134.385L129.891 183.966H130.104L161.899 183.922L182.332 183.897L216.806 183.848L216.836 183.722L228.431 134.258H142.283L142.258 134.385ZM130.316 183.639L142.55 134.585H228L216.543 183.521L182.332 183.565L161.924 183.595L130.316 183.639Z" fill="#252362"/>
<path d="M48.7162 132.232C50.8501 130.557 52.8107 130.723 52.8107 130.723C55.7813 130.967 58.0439 134.277 59.3857 137.254C64.2377 147.992 63.2673 165.71 69.0897 166.667C69.0897 166.667 97.2313 158.54 108.391 174.32C119.551 190.1 134.587 263.769 134.587 263.769C134.587 263.769 132.522 264.325 129.755 264.97C125.299 265.995 119.031 267.225 116.639 266.634C112.758 265.658 75.3973 251.806 69.5749 248.457C56.3556 240.858 55.2615 224.916 48.7162 198.715C43.0671 176.16 42.1611 160.053 43.1711 149.261C44.1068 139.172 46.7358 133.798 48.7162 132.232Z" fill="#E6E6E6"/>
<path d="M42.5875 149.21C41.736 158.313 42.0132 174.322 48.1475 198.869C49.3358 203.623 50.326 207.942 51.2815 212.125C55.4751 230.492 58.2427 242.627 69.2835 248.972C75.2742 252.418 112.793 266.294 116.496 267.207C117.077 267.331 117.67 267.387 118.264 267.373C121.235 267.373 126.037 266.431 129.884 265.543C132.637 264.908 134.726 264.342 134.746 264.337C134.888 264.298 135.01 264.207 135.087 264.083C135.164 263.959 135.191 263.811 135.162 263.668C134.548 260.657 119.972 189.712 108.867 174.01C104.193 167.372 95.7764 163.955 84.5525 164.019C79.3274 164.09 74.1304 164.787 69.0755 166.093C66.194 165.458 65.1147 159.225 63.9364 152.636C63.0254 147.472 61.9956 141.62 59.931 137.041C58.8269 134.601 56.4653 130.462 52.8659 130.164C51.2137 130.159 49.6147 130.739 48.3604 131.799C46.1919 133.483 43.548 138.945 42.5875 149.21ZM43.751 149.312C44.6719 139.399 47.2168 134.181 49.0783 132.717C50.1011 131.84 51.4064 131.348 52.7619 131.331C55.7325 131.575 57.8565 135.318 58.8566 137.525C60.837 141.976 61.8817 147.775 62.7778 152.851C64.0849 160.255 65.2088 166.649 68.9963 167.269C69.081 167.289 69.1691 167.289 69.2538 167.269C74.2639 165.959 79.419 165.264 84.602 165.2H84.9188C92.4246 165.2 102.381 166.874 107.911 174.698C118.383 189.473 132.528 256.694 133.934 263.371C133.152 263.576 131.558 263.981 129.646 264.425C123.116 265.933 118.556 266.524 116.803 266.094C113.125 265.186 75.8386 251.398 69.8925 247.981C59.2923 241.885 56.5692 229.946 52.4401 211.862C51.4845 207.674 50.4943 203.349 49.3061 198.586C43.1817 174.205 42.9044 158.332 43.751 149.312Z" fill="#252362"/>
<path d="M129.755 264.991C125.299 266.016 119.031 267.246 116.639 266.655C112.758 265.679 75.3973 251.827 69.5749 248.478C56.3556 240.879 55.2615 224.937 48.7162 198.736C43.0671 176.157 42.1611 160.05 43.1711 149.258C46.3001 162.729 70.6245 258.289 129.755 264.991Z" fill="#252362"/>
<path d="M42.8032 149.229C41.9516 158.317 42.2239 174.302 48.3582 198.819C49.5465 203.573 50.5317 207.898 51.4873 212.076C55.6709 230.389 58.4187 242.489 69.3902 248.786C75.371 252.227 112.85 266.089 116.549 267.002C117.115 267.122 117.693 267.176 118.272 267.163C121.242 267.163 126 266.221 129.832 265.337L131.887 264.849L129.793 264.61C105.038 261.808 83.5204 243.261 65.7908 209.484C52.0962 183.395 45.2836 156.721 43.5111 149.165L43.016 146.969L42.8032 149.229ZM43.3527 151.601C45.754 161.338 52.5418 185.831 65.1372 209.831C73.0589 224.908 81.9113 237.164 91.4668 246.233C102.602 256.815 114.776 263.146 127.679 265.078C122.178 266.26 118.321 266.694 116.727 266.299C113.038 265.391 75.7126 251.587 69.7565 248.161C59.0772 242.021 56.3442 230.048 52.2002 211.92C51.2447 207.732 50.2594 203.407 49.0662 198.644C43.4517 176.186 42.7685 160.933 43.3527 151.601Z" fill="#252362"/>
<path d="M106.158 97.5036C108.035 98.2699 108.718 100.671 109.461 103.292C110.812 108.046 110.594 113.396 107.624 121.396C104.463 129.793 99.7305 137.53 93.6719 144.205L117.174 161.225C116.924 163.326 116.425 165.392 115.689 167.38C113.718 172.567 110.282 177.089 105.787 180.412C96.2856 178.857 87.3248 174.999 79.71 169.186C75.0412 165.574 71.7883 163.06 69.8079 158.687C63.8667 145.664 75.1501 129.733 84.1312 117.047C86.4681 113.738 99.8012 94.902 106.158 97.5036Z" fill="#2857E5"/>
<path d="M83.5623 116.652C90.8601 106.354 100.762 94.5465 106.421 96.865C108.605 97.7582 109.342 100.35 110.12 103.098L109.461 103.279L108.803 103.464C108.085 100.936 107.466 98.7539 105.896 98.095C102.247 96.5917 94.3258 103.835 84.6861 117.424L84.6564 117.468C75.7446 130.065 64.6394 145.743 70.4222 158.399C72.3531 162.621 75.4525 165.018 80.1362 168.649C87.5675 174.354 96.3213 178.146 105.609 179.685C109.893 176.463 113.168 172.115 115.061 167.141C115.727 165.323 116.192 163.44 116.447 161.523L92.6821 144.303L93.1772 143.752C99.1752 137.137 103.864 129.474 107 121.158C109.684 113.929 110.243 108.467 108.822 103.469L109.481 103.283L110.144 103.103C111.63 108.399 111.075 114.109 108.288 121.621C105.183 129.859 100.577 137.468 94.6971 144.074L117.922 160.889L117.873 161.279C117.63 163.431 117.131 165.548 116.388 167.585C114.361 172.904 110.828 177.538 106.208 180.935L105.971 181.115L105.679 181.067C96.0578 179.515 86.986 175.608 79.2945 169.704C74.6257 166.092 71.2491 163.48 69.1795 158.966C63.0749 145.611 74.4227 129.587 83.5375 116.706L83.5623 116.652Z" fill="#252362"/>
<path d="M97.4926 105.942C97.6082 105.846 97.7571 105.797 97.9083 105.806C98.0595 105.815 98.2015 105.88 98.3047 105.99C98.4079 106.099 98.4645 106.243 98.4626 106.393C98.4607 106.542 98.4006 106.685 98.2947 106.792C98.1808 106.894 86.9915 117.276 84.4962 124.651C84.4569 124.767 84.3819 124.868 84.2816 124.94C84.1812 125.011 84.0607 125.051 83.9367 125.051C83.8724 125.051 83.8086 125.04 83.7486 125.017C83.6012 124.968 83.4794 124.864 83.4099 124.727C83.3403 124.589 83.3286 124.431 83.3772 124.285C85.9666 116.612 97.0223 106.362 97.4926 105.942Z" fill="#252362"/>
<path d="M81.2496 127.877C81.4015 127.849 81.5586 127.88 81.6884 127.962C81.8183 128.045 81.9111 128.174 81.9477 128.322C81.9636 128.395 81.9646 128.471 81.9505 128.545C81.9365 128.62 81.9077 128.69 81.8658 128.753C81.8239 128.816 81.7698 128.871 81.7065 128.913C81.6432 128.955 81.5721 128.985 81.4972 129C81.4972 129 80.1158 129.415 80.1158 132.783C80.1158 132.937 80.0538 133.085 79.9433 133.193C79.8328 133.302 79.6829 133.364 79.5267 133.364C79.3704 133.364 79.2206 133.302 79.1101 133.193C78.9996 133.085 78.9375 132.937 78.9375 132.783C78.9425 128.458 81.0169 127.926 81.2496 127.877Z" fill="#252362"/>
<path d="M85.414 146.103C87.8398 144.263 90.8469 143.326 93.905 143.458C94.0564 143.476 94.1948 143.551 94.2911 143.668C94.3874 143.784 94.434 143.933 94.4212 144.083C94.4084 144.233 94.3371 144.372 94.2223 144.471C94.1076 144.57 93.9583 144.622 93.806 144.614C91.0464 144.522 88.3391 145.372 86.1418 147.021C86.0385 147.104 85.9089 147.149 85.7754 147.148C85.6873 147.148 85.6003 147.128 85.5207 147.091C85.441 147.054 85.3708 147 85.315 146.933C85.2642 146.873 85.2264 146.803 85.2039 146.728C85.1813 146.653 85.1744 146.575 85.1837 146.497C85.193 146.419 85.2181 146.344 85.2577 146.277C85.2973 146.209 85.3505 146.15 85.414 146.103V146.103Z" fill="#252362"/>
<path d="M76.3065 157.766C76.3659 157.835 82.1784 164.6 88.6049 167.758C88.7223 167.817 88.8163 167.913 88.8717 168.031C88.9272 168.149 88.9408 168.282 88.9106 168.408C88.8804 168.535 88.808 168.648 88.705 168.729C88.602 168.81 88.4743 168.855 88.3425 168.856C88.2517 168.856 88.162 168.836 88.0801 168.797C81.4358 165.522 75.648 158.796 75.4054 158.513C75.3516 158.455 75.3101 158.387 75.2836 158.313C75.2571 158.239 75.2461 158.161 75.2512 158.083C75.2563 158.004 75.2775 157.928 75.3134 157.858C75.3493 157.788 75.3992 157.726 75.4601 157.675C75.521 157.625 75.5916 157.587 75.6677 157.564C75.7438 157.541 75.8239 157.534 75.903 157.542C75.9821 157.551 76.0586 157.575 76.128 157.614C76.1973 157.652 76.258 157.704 76.3065 157.766Z" fill="#252362"/>
<path d="M91.2403 168.88C91.275 168.88 94.503 171.013 96.9538 171.701C97.0889 171.741 97.205 171.827 97.281 171.944C97.3571 172.061 97.388 172.201 97.3682 172.339C97.3485 172.477 97.2793 172.603 97.1733 172.694C97.0673 172.786 96.9314 172.837 96.7904 172.838C96.7365 172.84 96.6828 172.832 96.632 172.814C94.003 172.077 90.7254 169.934 90.5868 169.846C90.4555 169.761 90.3639 169.628 90.3324 169.476C90.3008 169.324 90.3318 169.166 90.4184 169.036C90.5051 168.907 90.6404 168.816 90.7945 168.785C90.9486 168.754 91.109 168.785 91.2403 168.87V168.88Z" fill="#252362"/>
<path d="M92.2413 148.825C92.1642 148.959 92.1438 149.117 92.1847 149.265C92.2255 149.413 92.3242 149.539 92.4591 149.616C94.9099 151.007 97.5091 152.613 99.4252 153.945L99.346 154.043C98.9846 154.531 99.0737 155.249 99.5836 155.932C99.8865 156.346 100.278 156.689 100.731 156.937C101.184 157.185 101.686 157.332 102.203 157.367C102.425 157.369 102.646 157.334 102.856 157.264C103.032 157.218 103.189 157.121 103.308 156.985C103.426 156.849 103.5 156.681 103.52 156.503C103.554 156.152 103.455 155.702 102.43 154.775C102.762 154.853 103.148 154.961 103.594 155.097C103.669 155.123 103.748 155.134 103.827 155.129C103.906 155.124 103.983 155.104 104.054 155.069C104.125 155.034 104.188 154.985 104.239 154.926C104.29 154.866 104.329 154.797 104.352 154.723C104.376 154.648 104.384 154.57 104.376 154.492C104.369 154.415 104.345 154.339 104.307 154.271C104.269 154.202 104.217 154.142 104.155 154.094C104.093 154.045 104.022 154.01 103.945 153.989C102.911 153.617 101.818 153.427 100.717 153.428C100.049 152.94 99.2321 152.393 98.2419 151.744C95.6921 150.104 93.0928 148.625 93.0681 148.61C93.0001 148.569 92.9242 148.541 92.845 148.53C92.7659 148.518 92.6852 148.523 92.6078 148.543C92.5305 148.563 92.4581 148.598 92.3951 148.647C92.332 148.695 92.2797 148.756 92.2413 148.825V148.825ZM100.306 154.682C100.34 154.655 100.379 154.633 100.42 154.619C101.077 155.065 101.679 155.586 102.213 156.171V156.171C101.879 156.132 101.558 156.026 101.269 155.858C100.98 155.689 100.73 155.464 100.534 155.195C100.302 154.917 100.267 154.717 100.306 154.682Z" fill="#252362"/>
<path d="M97.3104 58.8085C99.9782 41.3134 89.8316 26.6823 80.043 14" stroke="#2857E5" stroke-width="4" stroke-linecap="round"/>
<path d="M74.5075 64.1497C68.0084 57.6506 61.5523 51.1055 55.009 44.6511C52.231 41.9109 47.5216 39.4256 45.0257 36.6178C42.351 33.6087 40.1906 31.5509 39.4102 27.6484" stroke="#2857E5" stroke-width="4" stroke-linecap="round"/>
<path d="M51.1363 86.4871C50.799 86.993 47.7233 80.594 47.7045 80.5595C45.8428 77.1463 44.0223 73.5475 41.933 70.2643C39.0418 65.7211 35.5262 61.5897 31.6377 57.8633C26.4224 52.8652 20.3105 49.0128 13.5431 46.3981C10.1335 45.0808 5.427 41.5625 2 41.5625" stroke="#2857E5" stroke-width="4" stroke-linecap="round"/>
<path d="M214.499 266.541C223 266.541 227 261.5 235.5 253.5" stroke="#2857E5" stroke-width="4" stroke-linecap="round"/>
</svg>
